<svg width="29" height="29" viewBox="0 0 29 29" fill="none" xmlns="http://www.w3.org/2000/svg">
<mask id="path-1-outside-1_403_346" maskUnits="userSpaceOnUse" x="0" y="0" width="29" height="29" fill="black">
<rect fill="white" width="29" height="29"/>
<path d="M27.4677 13.7844C27.4677 16.9953 26.3508 19.8573 24.4312 22.091L26.2461 23.9059L23.2097 26.9074L21.1156 24.8133C19.196 25.8953 16.8924 26.5235 14.3795 26.5235C6.91055 26.5235 1.22156 20.9741 1.22156 13.7844C1.22156 6.55972 6.87565 1.04525 14.3795 1.04525C21.8485 1.04525 27.4677 6.59462 27.4677 13.7844ZM14.3795 22.44C15.7058 22.44 16.9623 22.1608 18.0442 21.7071L16.7528 20.3808L19.8242 17.3793L21.4297 19.0196C22.4767 17.5887 23.105 15.8087 23.105 13.7844C23.105 8.79343 19.3356 5.09385 14.3795 5.09385C9.38857 5.09385 5.58428 8.75853 5.58428 13.7844C5.58428 18.7753 9.38857 22.44 14.3795 22.44Z"/>
</mask>
<path d="M27.4677 13.7844C27.4677 16.9953 26.3508 19.8573 24.4312 22.091L26.2461 23.9059L23.2097 26.9074L21.1156 24.8133C19.196 25.8953 16.8924 26.5235 14.3795 26.5235C6.91055 26.5235 1.22156 20.9741 1.22156 13.7844C1.22156 6.55972 6.87565 1.04525 14.3795 1.04525C21.8485 1.04525 27.4677 6.59462 27.4677 13.7844ZM14.3795 22.44C15.7058 22.44 16.9623 22.1608 18.0442 21.7071L16.7528 20.3808L19.8242 17.3793L21.4297 19.0196C22.4767 17.5887 23.105 15.8087 23.105 13.7844C23.105 8.79343 19.3356 5.09385 14.3795 5.09385C9.38857 5.09385 5.58428 8.75853 5.58428 13.7844C5.58428 18.7753 9.38857 22.44 14.3795 22.44Z" fill="#D9D9D9"/>
<path d="M24.4312 22.091L23.7217 21.4813L23.1564 22.1391L23.7697 22.7525L24.4312 22.091ZM26.2461 23.9059L26.9038 24.5712L27.5729 23.9097L26.9076 23.2444L26.2461 23.9059ZM23.2097 26.9074L22.5482 27.5689L23.2059 28.2266L23.8673 27.5727L23.2097 26.9074ZM21.1156 24.8133L21.777 24.1519L21.2749 23.6497L20.6562 23.9984L21.1156 24.8133ZM18.0442 21.7071L18.406 22.5698L19.6727 22.0386L18.7145 21.0545L18.0442 21.7071ZM16.7528 20.3808L16.099 19.7118L15.4312 20.3644L16.0826 21.0334L16.7528 20.3808ZM19.8242 17.3793L20.4928 16.7249L19.8389 16.0569L19.1704 16.7102L19.8242 17.3793ZM21.4297 19.0196L20.7611 19.674L21.533 20.4626L22.1846 19.5721L21.4297 19.0196ZM26.5322 13.7844C26.5322 16.7702 25.4965 19.4162 23.7217 21.4813L25.1407 22.7007C27.2052 20.2984 28.4032 17.2205 28.4032 13.7844H26.5322ZM23.7697 22.7525L25.5846 24.5674L26.9076 23.2444L25.0927 21.4295L23.7697 22.7525ZM25.5885 23.2406L22.552 26.2421L23.8673 27.5727L26.9038 24.5712L25.5885 23.2406ZM23.8712 26.246L21.777 24.1519L20.4541 25.4748L22.5482 27.5689L23.8712 26.246ZM20.6562 23.9984C18.8807 24.9991 16.736 25.588 14.3795 25.588V27.459C17.0489 27.459 19.5112 26.7915 21.5749 25.6283L20.6562 23.9984ZM14.3795 25.588C7.40048 25.588 2.15705 20.4312 2.15705 13.7844H0.286078C0.286078 21.5171 6.42062 27.459 14.3795 27.459V25.588ZM2.15705 13.7844C2.15705 7.10275 7.36553 1.98073 14.3795 1.98073V0.109762C6.38577 0.109762 0.286078 6.0167 0.286078 13.7844H2.15705ZM14.3795 1.98073C21.3519 1.98073 26.5322 7.13113 26.5322 13.7844H28.4032C28.4032 6.05812 22.3451 0.109762 14.3795 0.109762V1.98073ZM14.3795 23.3755C15.8354 23.3755 17.2146 23.0694 18.406 22.5698L17.6824 20.8444C16.7099 21.2522 15.5761 21.5045 14.3795 21.5045V23.3755ZM18.7145 21.0545L17.4231 19.7282L16.0826 21.0334L17.374 22.3597L18.7145 21.0545ZM17.4067 21.0499L20.478 18.0483L19.1704 16.7102L16.099 19.7118L17.4067 21.0499ZM19.1556 18.0336L20.7611 19.674L22.0982 18.3653L20.4928 16.7249L19.1556 18.0336ZM22.1846 19.5721C23.3479 17.9823 24.0404 16.0092 24.0404 13.7844H22.1695C22.1695 15.6082 21.6056 17.1951 20.6747 18.4672L22.1846 19.5721ZM24.0404 13.7844C24.0404 8.26938 19.8448 4.15837 14.3795 4.15837V6.02933C18.8264 6.02933 22.1695 9.31749 22.1695 13.7844H24.0404ZM14.3795 4.15837C8.88927 4.15837 4.6488 8.2247 4.6488 13.7844H6.51976C6.51976 9.29237 9.88787 6.02933 14.3795 6.02933V4.15837ZM4.6488 13.7844C4.6488 19.3116 8.89179 23.3755 14.3795 23.3755V21.5045C9.88535 21.5045 6.51976 18.239 6.51976 13.7844H4.6488Z" fill="#996DFF" mask="url(#path-1-outside-1_403_346)"/>
</svg>
