<svg width="111" height="111" viewBox="0 0 111 111" fill="none" xmlns="http://www.w3.org/2000/svg">
<path d="M13.106 13.3444C8.07879 18.2629 5.29766 23.4979 4.38157 25.3409C2.713 28.678 0.259123 33.7279 0.0190645 40.6094C-0.177396 46.226 1.18599 50.5556 2.20058 53.6963C4.74165 61.5268 7.14062 61.8648 8.74406 68.9648C9.79096 73.5997 9.82379 78.1365 9.83456 79.8708C9.84532 83.9383 9.42011 86.305 9.83456 90.7768C10.1397 94.0267 10.2818 95.6517 10.925 97.3202C13.0737 102.904 18.5919 105.576 21.831 107.135C28.4838 110.353 34.5256 110.407 38.19 110.407C44.9735 110.407 49.8156 108.924 55.6395 107.135C57.6353 106.525 66.6762 103.678 77.4514 97.3202C84.6709 93.0557 89.5023 89.0861 92.7194 86.4143C98.8705 81.3101 101.226 78.3766 102.535 76.5988C104.651 73.7197 106.962 70.5133 107.988 65.6928C108.544 63.1189 109.308 59.771 107.988 55.8773C107.213 53.5984 106.221 50.6644 103.625 49.3338C102.426 48.7234 100.91 48.4613 100.354 47.1528C99.9609 46.2367 100.354 45.3206 100.354 44.9719C100.354 44.9719 100.365 40.3149 99.2634 35.1564C97.4091 26.5186 92.7194 19.8879 92.7194 19.8879C87.6265 12.6899 81.2358 9.30917 76.3609 6.80093C72.4344 4.77228 60.6995 -1.06233 44.7335 0.25745C40.1309 0.639067 24.8081 1.90395 13.106 13.3444Z" fill="#D79172"/>
<path d="M100.899 47.6982C101.063 43.7609 100.823 37.7519 98.3797 31.1104C90.5386 9.75652 67.6905 2.75499 64.8986 2.00252C43.5996 -3.76696 19.999 3.02735 6.66122 21.1313C-0.831191 31.2956 -0.994818 43.2049 2.28796 55.0377L4.17451 61.2324C8.58061 61.6248 13.139 59.7603 15.953 56.3903C18.7777 53.0204 19.781 48.2542 18.5484 44.0553C22.6165 48.4178 29.2692 50.2285 35.0382 48.5486C40.7969 46.8693 45.3882 41.7871 46.413 35.9417C47.4168 41.8635 51.5936 47.1744 57.1553 49.5847C62.7284 51.995 69.5119 51.439 74.594 48.1562C77.1787 54.1873 79.7526 60.2183 82.3373 66.2489C82.1957 65.7365 80.2106 58.0481 85.6093 52.0714C89.3937 47.8726 95.3263 46.1824 100.877 47.7089L100.899 47.6982Z" fill="#9747FF"/>
<path d="M89.6337 102.293C91.2151 105.87 96.4824 107.114 99.4922 104.627C102.503 102.14 102.284 96.7315 99.0778 94.5064C102.459 97.2439 108.206 96.1421 110.333 92.3583C111.784 89.7844 109.973 84.4729 106.341 81.6159C105.425 80.8957 104.258 80.3941 104.258 80.3941C103.888 80.2197 102.132 79.4016 100.899 79.3364C98.5875 79.2056 97.4641 81.7031 92.1748 86.9704C90.4949 88.639 89.6224 89.4243 88.8484 90.0675C88.216 90.6019 87.7902 90.9949 87.1578 91.4965C85.2384 93.023 84.8132 93.1215 84.5403 93.5139C83.8863 94.43 84.3443 96.6551 88.9028 102.239" fill="#9747FF"/>
<path d="M92.5782 56.1504C92.3273 61.5054 93.287 66.9035 95.3593 71.8441" stroke="black" stroke-width="1.38505" stroke-linecap="round" stroke-linejoin="round"/>
<path d="M93.7441 65.5948L97.7137 62.0833" stroke="black" stroke-width="1.38505" stroke-linecap="round" stroke-linejoin="round"/>
<path d="M17.866 71.7223C16.2846 71.2535 14.4309 72.442 14.2016 74.0782C13.9728 75.714 15.4229 77.3718 17.0699 77.3605C17.7244 77.3605 18.4112 77.0989 18.8042 76.5644C19.1965 76.0299 19.2294 75.2231 18.7929 74.7435C18.3569 74.2634 17.4408 74.2634 17.0807 74.8194" stroke="black" stroke-width="1.38505" stroke-linecap="round" stroke-linejoin="round"/>
<path d="M36.9197 70.9918C35.3383 70.5224 33.4846 71.7114 33.2553 73.3472C33.0266 74.9829 34.4771 76.6407 36.1236 76.6299C36.7781 76.6299 37.4655 76.3683 37.8579 75.8339C38.2502 75.2994 38.2831 74.4926 37.8471 74.0124C37.4106 73.5329 36.4945 73.5329 36.1349 74.0889" stroke="black" stroke-width="1.38505" stroke-linecap="round" stroke-linejoin="round"/>
<path d="M19.5545 62.1636C18.7692 62.2508 17.3837 62.5129 15.9009 63.3962C14.4282 64.2794 13.5342 65.3699 13.0869 66.0244" stroke="black" stroke-width="1.38505" stroke-linecap="round" stroke-linejoin="round"/>
<path d="M32.8809 62.1636C33.6656 62.2508 35.0511 62.5129 36.5339 63.3962C38.0066 64.2794 38.9006 65.3699 39.3479 66.0244" stroke="black" stroke-width="1.38505" stroke-linecap="round" stroke-linejoin="round"/>
<path d="M29.8712 85.0659C28.8459 85.2731 23.0005 85.306 21.8115 85.0659" stroke="black" stroke-width="1.38505" stroke-linecap="round" stroke-linejoin="round"/>
</svg>
