<svg width="153" height="141" viewBox="0 0 153 141" fill="none" xmlns="http://www.w3.org/2000/svg">
<path opacity="0.47" d="M107.667 74.1553C104.842 105.1 78.6723 135.508 44.1921 135.217C11.0425 134.937 -13.8313 106.407 -17.7999 77.5509C-22.8774 40.62 5.895 0.305201 44.1921 0.00181942C81.4503 -0.301562 111.028 37.3878 107.667 74.1553Z" fill="url(#paint0_linear_173_846)"/>
<path opacity="0.47" d="M62.8851 79.685C66.0772 84.4525 84.0763 111.281 74.4768 124.696C57.7941 147.996 -39.9489 127.664 -49.3271 83.027C-52.193 69.3671 -46.8107 53.3118 -36.2442 44.8402C-12.1754 25.5481 39.5619 44.922 62.8734 79.685H62.8851Z" fill="#252C3A"/>
<path opacity="0.47" d="M59.9647 127.943C54.291 127.197 22.3222 122.955 18.664 106.896C12.3029 78.998 92.2247 19.1691 131.79 41.6254C143.894 48.5009 152.318 63.1377 151.654 76.6557C150.127 107.444 101.394 133.42 59.9764 127.931L59.9647 127.943Z" fill="#252C3A"/>
<path d="M106.846 91.998C109.86 92.766 112.908 93.5108 115.42 92.6497C115.595 92.5449 115.665 92.4635 115.583 92.4751C115.49 92.4984 115.303 92.6729 115.221 92.7428C115.338 91.0671 115.91 87.1107 117.838 84.4226C119.228 82.3397 121.342 80.7106 123.585 79.64C127.988 77.3709 134.787 77.9411 138.361 77.8364C139.319 77.8014 139.949 77.5571 139.529 77.6153C138.898 77.7316 138.256 78.4647 138.045 78.9767C137.847 79.4422 137.929 79.1629 137.742 78.4996C137.158 76.1607 135.896 73.2283 133.969 71.1919C127.159 62.7787 138.933 52.5967 146.339 60.4979C152.168 68.05 157.319 82.9099 147.437 89.7754C141.281 93.8715 134.868 90.7646 128.841 91.5791C128.455 91.7188 128.245 91.8118 128.222 91.7653C128.163 91.7304 127.93 91.9049 127.65 93.1035C127.568 93.4526 127.346 94.337 127.264 94.6744C126.61 97.4905 125.01 100.411 122.51 102.029C116.716 105.915 109.124 104.065 103.505 101.971C97.1976 99.4454 100.305 90.206 106.858 91.9631L106.846 91.998Z" fill="#8761DE"/>
<path d="M110.819 108.078C106.085 127.966 68.6552 134.588 49.5322 135.171C25.7334 135.893 -13.6086 128.607 -18.401 108.078C-23.4616 86.4403 10.3884 52.4223 46.209 52.4106C82.1112 52.4106 115.938 86.5685 110.819 108.078Z" fill="#8761DE"/>
<path d="M42.7438 129.402C51.3202 123.024 43.7012 98.2607 25.7263 74.0928C7.75142 49.9249 -13.7726 35.5038 -22.349 41.8825C-30.9254 48.2612 -23.3064 73.0241 -5.33153 97.192C12.6434 121.36 34.1674 135.781 42.7438 129.402Z" fill="#8761DE"/>
<path d="M46.2139 128.667C56.8514 128.667 65.4748 104.205 65.4748 74.0295C65.4748 43.8538 56.8514 19.3916 46.2139 19.3916C35.5765 19.3916 26.9531 43.8538 26.9531 74.0295C26.9531 104.205 35.5765 128.667 46.2139 128.667Z" fill="#8761DE"/>
<path d="M97.865 97.2241C115.84 73.0562 123.459 48.2932 114.882 41.9146C106.306 35.5359 84.782 49.9569 66.8071 74.1249C48.8323 98.2928 41.2133 123.056 49.7897 129.434C58.366 135.813 79.8901 121.392 97.865 97.2241Z" fill="#8761DE"/>
<path d="M36.125 105.083C36.8363 105.82 40.4404 109.364 46.214 109.531C51.7861 109.697 55.4968 106.593 56.303 105.891" fill="#3C2B64"/>
<path d="M36.125 105.083C36.8363 105.82 40.4404 109.364 46.214 109.531C51.7861 109.697 55.4968 106.593 56.303 105.891" stroke="#3C2B64" stroke-width="9" stroke-miterlimit="10" stroke-linecap="round"/>
<path d="M23.2746 80.878C24.7037 76.5475 29.9514 75.2892 33.3367 78.4407C34.555 79.5743 36.4292 77.7832 35.1992 76.6382C30.3731 72.1376 22.7709 74.0308 20.7326 80.1978C20.2172 81.7623 22.7592 82.4311 23.2746 80.878Z" fill="#3C2B64"/>
<path d="M28.2073 96.8328C29.6113 92.353 34.767 91.0512 38.0929 94.3114C39.2898 95.4842 41.1311 93.6312 39.9228 92.4468C35.1813 87.791 27.7124 89.7495 25.71 96.1292C25.2036 97.7475 27.7009 98.4394 28.2073 96.8328Z" fill="#3C2B64"/>
<path d="M53.3621 93.5881C56.6084 90.183 62.115 91.0135 63.8223 95.5339C64.4234 97.1237 67.0445 96.4356 66.4313 94.822C64.0507 88.5338 56.1996 86.7186 51.4384 91.7017C50.2481 92.9474 52.1598 94.8458 53.3501 93.5881H53.3621Z" fill="#3C2B64"/>
<path d="M60.0894 77.7585C63.6041 73.9691 69.3302 75.7523 70.2613 80.8088C70.5755 82.4747 73.0893 81.7708 72.7867 80.1049C71.4949 73.1126 63.0222 70.731 58.2389 75.8931C57.0867 77.1367 58.9372 79.0021 60.0894 77.7585Z" fill="#3C2B64"/>
<defs>
<linearGradient id="paint0_linear_173_846" x1="44.7727" y1="0" x2="44.7727" y2="135.219" gradientUnits="userSpaceOnUse">
<stop offset="0.325" stop-color="#252C3A"/>
<stop offset="0.87" stop-color="white"/>
</linearGradient>
</defs>
</svg>
