<svg width="156" height="85" viewBox="0 0 156 85" fill="none" xmlns="http://www.w3.org/2000/svg">
<path d="M37.7706 73.0528C32.0316 79.8783 23.97 86.0267 14.2474 83.8775C11.4369 83.4209 8.13045 81.1458 5.68209 79.65C1.82453 77.2882 0.612158 72.2419 2.97393 68.3843C6.50083 62.5193 15.4913 63.5191 17.6799 69.9273C17.8058 70.2816 18.3175 70.7382 19.2623 70.9665C23.7181 71.8561 27.7567 68.5812 31.4411 66.0304C36.1095 62.7869 41.455 68.7937 37.7628 73.0528H37.7706Z" fill="#8761DE"/>
<path d="M46.9569 64.7158C44.1386 61.1731 53.688 48.8605 68.3073 37.2248C70.5667 35.422 72.8104 33.753 75.0069 32.2179C80.5728 28.3131 85.8159 25.3058 90.0671 23.5187C94.9874 21.4403 98.6009 20.968 99.8842 22.574C102.703 26.1245 93.1531 38.4293 78.5338 50.0728C63.9223 61.7085 49.7911 68.2663 46.9648 64.7237L46.9569 64.7158Z" fill="#8761DE"/>
<path d="M63.051 74.1117C70.2572 73.7945 75.3744 57.0756 74.4807 36.7688C73.587 16.4621 67.0207 0.257284 59.8145 0.574433C52.6084 0.891582 47.4911 17.6106 48.3848 37.9173C49.2785 58.2241 55.8448 74.4288 63.051 74.1117Z" fill="#8761DE"/>
<path d="M62.9641 70.6115C68.2506 65.7042 61.3257 49.6494 47.4969 34.7522C33.6681 19.8549 18.1721 11.7566 12.8856 16.664C7.59905 21.5713 14.5239 37.6261 28.3528 52.5233C42.1816 67.4206 57.6776 75.5189 62.9641 70.6115Z" fill="#8761DE"/>
<path d="M101.002 52.529C99.8368 62.5822 85.1387 68.3922 78.4864 71.0216C59.3167 78.6029 29.149 79.6499 23.0084 66.1957C17.0646 53.1666 33.597 26.4078 56.3724 22.7786C78.8092 19.2044 102.584 38.8229 100.994 52.529H101.002Z" fill="#8761DE"/>
<path d="M61.5777 43.8142C60.1056 45.869 62.1052 48.3645 64.3489 48.459C66.7579 48.5535 68.4741 46.0421 68.0175 43.8063C67.5058 41.3265 64.5929 40.3896 62.4988 41.4918C60.2236 42.6884 60.0111 45.7351 61.6958 47.5143C62.7665 48.6401 64.4591 48.955 65.8447 48.2701C67.2302 47.5852 68.0962 45.987 67.2538 44.5542C66.8681 43.8929 66.191 43.7355 65.4904 43.8378C65.5534 43.83 65.8761 43.7827 65.64 43.7906C65.2542 43.8063 64.9078 43.9165 64.5614 44.0976C64.5142 44.1212 64.2072 44.3102 64.4433 44.1842C64.711 44.0346 64.1521 44.2236 64.5142 44.1685C64.8921 44.1134 64.2938 44.1685 64.3095 44.1527C64.3804 44.0661 64.7819 44.2551 64.8527 44.2944C64.5929 44.1763 64.8527 44.2787 64.9551 44.3732C65.0653 44.4834 65.1282 44.7274 65.0338 44.4676L65.1361 44.7353C65.081 44.5385 65.0731 44.5464 65.1046 44.7432C65.1204 44.9242 65.1204 44.9479 65.1125 44.8219C65.1125 44.6959 65.1046 44.7196 65.0889 44.9006C65.0574 45.0817 65.0574 45.1053 65.0889 44.9793C65.1282 44.8612 65.1125 44.8849 65.0574 45.0423C64.9393 45.2313 64.8606 45.3494 64.7031 45.5068C64.5378 45.617 64.5378 45.6249 64.7031 45.5147L64.4197 45.6249C64.4197 45.6249 64.6953 45.554 64.6953 45.5462C64.6716 45.5934 64.1521 45.6013 64.5142 45.6013L64.1835 45.5619C64.3725 45.6249 64.3646 45.617 64.1757 45.5462C63.971 45.4281 63.8608 45.3336 63.6876 45.1762C63.5852 45.0266 63.5616 44.9951 63.6246 45.0974C63.6876 45.2077 63.6718 45.1683 63.5852 44.9951C63.5616 44.8928 63.4908 44.4283 63.4829 44.5385C63.4829 44.6015 63.4593 44.814 63.4829 44.8691C63.4435 44.7983 63.5931 44.3338 63.4829 44.6487C63.5144 44.5464 63.7191 44.2315 63.5537 44.4755C63.3884 44.7196 63.6167 44.4046 63.6718 44.3417C63.475 44.5778 63.8765 44.2315 63.9631 44.1842C64.1284 44.1212 64.1599 44.1134 64.0418 44.1448C63.9237 44.1763 63.9552 44.1685 64.1363 44.137C64.2387 44.1055 64.341 44.1055 64.4512 44.137C64.6244 44.1685 64.6559 44.1685 64.5457 44.137C64.2938 44.074 64.9708 44.3495 64.648 44.1606C64.7346 44.2157 64.9708 44.4283 64.7819 44.2236C64.8527 44.2944 65.0338 44.5463 64.8763 44.318C64.6716 44.0189 64.4355 43.7748 64.1363 43.578C63.7427 43.3182 64.2938 43.8536 64.0182 43.4914C63.349 42.6333 62.0973 43.0978 61.5856 43.8063L61.5777 43.8142Z" fill="#3E3D4D"/>
<path d="M55.7427 31.7611C56.7032 28.7538 60.2301 27.8799 62.5053 30.0685C63.324 30.8557 64.5836 29.6119 63.757 28.8167C60.5135 25.6913 55.4042 27.0061 54.0344 31.2887C53.688 32.3751 55.3963 32.8396 55.7427 31.7611V31.7611Z" fill="#3E3D4D"/>
<path d="M77.0542 29.3914C78.0147 26.3841 81.5416 25.5103 83.8168 27.6988C84.6355 28.4861 85.8951 27.2422 85.0685 26.4471C81.825 23.3217 76.7157 24.6364 75.3459 28.9191C74.9995 30.0055 76.7079 30.47 77.0542 29.3914V29.3914Z" fill="#3E3D4D"/>
<path d="M78.4553 42.9325C78.1326 44.0819 78.8096 45.3336 79.8094 45.9162C80.7226 46.4515 81.9508 46.42 82.8246 45.8138C83.6985 45.2076 84.3913 44.1763 84.2968 43.0584C84.1866 41.7437 83.3836 40.6258 82.0846 40.2637C81.0218 39.9645 79.7701 40.2322 78.9749 41.0273C78.1798 41.8224 77.8649 43.0112 78.1641 44.1291C78.4632 45.247 79.3449 46.0736 80.4235 46.3413C81.8642 46.7034 83.2733 45.8217 83.7378 44.4598C83.9661 43.7906 83.7063 42.9876 83.2182 42.5074C82.6672 41.9563 81.998 41.8776 81.2658 41.9878C81.1871 42.0035 81.1084 42.0193 81.0297 42.0429L81.5886 41.9642C81.5099 41.972 81.4312 41.9799 81.3524 41.9642L81.935 42.0429C81.7776 42.0193 81.6122 41.9956 81.4627 41.9405L81.998 42.1689C81.9508 42.1452 81.9035 42.1216 81.8563 42.0901L82.3129 42.4444C82.2499 42.3893 82.1948 42.342 82.1397 42.2791L82.494 42.7357C82.4467 42.6648 82.4074 42.6018 82.368 42.531L82.5963 43.0742C82.5569 42.9718 82.5255 42.8695 82.5097 42.7671L82.5884 43.3734C82.5884 43.2868 82.5884 43.2159 82.5884 43.1372L82.5097 43.7434C82.5176 43.6883 82.5333 43.641 82.5491 43.5859L82.3208 44.1291C82.3523 44.0504 82.3916 43.9874 82.4389 43.9244L82.0846 44.3889C82.1161 44.3495 82.1554 44.3102 82.2027 44.2787L81.7382 44.6329C81.8091 44.5857 81.872 44.5463 81.9429 44.5149L81.3918 44.7432C81.4705 44.7117 81.5414 44.6959 81.628 44.6802L81.0139 44.7589C81.1005 44.7589 81.1714 44.751 81.258 44.7589L80.6439 44.6802C80.7226 44.6959 80.8014 44.7117 80.8801 44.7353L80.329 44.4991C80.4077 44.5306 80.4707 44.57 80.5337 44.6172L80.0692 44.2551C80.1086 44.2866 80.1479 44.3259 80.1794 44.3732L79.8173 43.9008C79.8173 43.9008 79.8724 43.9795 79.896 44.0268L79.6598 43.4757C79.6913 43.5466 79.7071 43.6095 79.7228 43.6804L79.6362 43.0663C79.6441 43.1844 79.6441 43.3104 79.6362 43.4284L79.715 42.8144C79.6992 42.8931 79.6835 42.9561 79.6598 43.027L79.8882 42.4837C79.8488 42.5782 79.8016 42.6569 79.7386 42.7435L80.0928 42.2869C80.0456 42.342 79.9984 42.3893 79.9354 42.4365L80.3841 42.0901C80.3211 42.1295 80.266 42.161 80.1952 42.1925L80.7226 41.972C80.6754 41.9878 80.6282 42.0035 80.5809 42.0035L81.1635 41.9248C81.1163 41.9248 81.069 41.9327 81.0139 41.9248L81.5886 42.0035C81.5178 41.9956 81.4548 41.9799 81.3839 41.9563L81.8956 42.1689C81.8327 42.1374 81.7776 42.1059 81.7146 42.0665L82.1397 42.3971C82.0846 42.3499 82.0374 42.3027 81.9901 42.2476L82.3208 42.6727C82.1633 42.4601 82.0374 42.2003 81.8327 42.0271C81.2501 41.5626 80.6124 41.295 79.8567 41.5076C79.1717 41.6965 78.6285 42.2397 78.4396 42.9246L78.4553 42.9325Z" fill="#3E3D4D"/>
<path d="M76.763 49.4823C74.7949 49.4429 72.7244 50.0412 71.3782 51.474C70.032 52.9068 69.6069 55.2844 70.7248 56.9061C71.8427 58.5279 74.5745 58.8585 75.8026 57.3155" stroke="#3E3D4D" stroke-width="1.53135" stroke-miterlimit="10" stroke-linecap="round"/>
<path d="M95.2951 51.5527C95.9249 52.954 97.3498 53.82 98.8771 53.757L136.217 52.0723C138.634 51.9621 140.318 49.6239 139.649 47.2937C139.192 44.0895 138.46 40.4367 137.287 36.4768C136.24 32.9184 135.028 29.7615 133.823 27.0454C133.768 26.8486 133.288 25.2899 131.651 24.6207C130.643 24.2034 129.454 24.2271 128.399 24.8175L98.6331 41.4522C95.0589 43.444 93.6104 47.8448 95.2951 51.5685V51.5527Z" fill="#FFB487"/>
<path d="M100.979 52.8045L104.152 59.4647C104.719 60.6534 106.152 61.1494 107.333 60.5589C108.403 60.0236 108.907 58.7797 108.506 57.654L104.585 46.6245L101.759 49.0886C100.696 50.0097 100.381 51.5291 100.987 52.7966L100.979 52.8045Z" fill="#FFB487"/>
<path d="M128.808 29.6277C127.816 36.1068 129.634 42.9717 133.704 48.1125" stroke="#3E3D4D" stroke-width="1.53135" stroke-miterlimit="10" stroke-linecap="round"/>
<path d="M129.226 35.5636C131.202 35.0125 133.5 36.3036 134.051 38.2796C134.603 40.2557 133.296 42.5544 131.32 43.0977" stroke="#3E3D4D" stroke-width="1.53135" stroke-miterlimit="10" stroke-linecap="round"/>
<path d="M140.546 26.9433L147.387 21.3223" stroke="#3E3D4D" stroke-width="1.53135" stroke-miterlimit="10" stroke-linecap="round"/>
<path d="M148.229 36.3587L153.433 34.6819" stroke="#3E3D4D" stroke-width="1.53135" stroke-miterlimit="10" stroke-linecap="round"/>
<path d="M148.97 47.0496L155 49.0649" stroke="#3E3D4D" stroke-width="1.53135" stroke-miterlimit="10" stroke-linecap="round"/>
<path d="M87.2175 56.3627C90.8939 58.9134 94.9483 62.1963 99.3963 61.2988C100.341 61.0705 100.853 60.6139 100.979 60.2596C102.49 55.9927 107.174 53.7648 111.433 55.2763C117.897 57.4964 118.794 66.5105 112.984 69.9823L109.3 72.2417C106.371 74.0445 102.9 74.7845 99.6325 74.6034C91.752 74.2964 85.5878 68.8644 80.8958 63.3929C77.1799 59.0866 82.5963 53.1507 87.2175 56.3706V56.3627Z" fill="#8761DE"/>
<path d="M103.585 59.095C103.065 61.3465 104.041 63.8736 105.947 65.1883C107.852 66.503 110.56 66.5267 112.481 65.2434" stroke="#3E3D4D" stroke-width="1.53135" stroke-miterlimit="10" stroke-linecap="round"/>
<path d="M12.4834 76.9653C14.1095 76.9653 15.4277 72.8555 15.4277 67.7859C15.4277 62.7162 14.1095 58.6064 12.4834 58.6064C10.8573 58.6064 9.53906 62.7162 9.53906 67.7859C9.53906 72.8555 10.8573 76.9653 12.4834 76.9653Z" fill="#8761DE"/>
<path d="M15.4354 67.2741L14.6245 60.7163C14.53 59.9684 14.4277 59.1969 14.0498 58.5513C13.6719 57.9058 12.9161 57.4098 12.1761 57.5672C11.0582 57.8034 10.7118 59.1969 10.5859 60.3384L9.95605 66.1641" stroke="#3E3D4D" stroke-width="1.53135" stroke-miterlimit="10" stroke-linecap="round"/>
<path d="M9.83856 66.6839C9.20088 65.4164 7.42168 64.8968 6.19356 65.6053C4.96544 66.3139 4.5482 68.1246 5.33545 69.3055" stroke="#3E3D4D" stroke-width="1.53135" stroke-miterlimit="10" stroke-linecap="round"/>
<path d="M4.92541 66.6284C3.42175 66.6757 1.98895 67.6282 1.35914 68.9902C0.729337 70.3521 0.941896 72.0684 1.8866 73.2414" stroke="#3E3D4D" stroke-width="1.53135" stroke-miterlimit="10" stroke-linecap="round"/>
</svg>
