<svg width="111" height="98" viewBox="0 0 111 98" fill="none" xmlns="http://www.w3.org/2000/svg">
<path d="M85.2263 63.8703C89.232 63.3377 93.9196 63.0678 96.3486 59.7652C96.8387 59.0336 96.9026 58.4228 96.7747 58.1032C95.1909 54.339 96.9594 50.0065 100.724 48.4227C106.384 45.9795 112.457 51.4412 110.688 57.2864L109.602 61.0294C108.749 64.0124 106.881 66.6118 104.587 68.4798C99.1398 73.0608 91.7321 73.1815 85.276 72.379C80.1836 71.7611 80.1907 64.5095 85.2263 63.8561V63.8703Z" fill="#8761DE"/>
<path d="M106 16.5827C105.617 18.6069 103.727 18.4364 101.682 22.2433C100.29 24.8357 100.389 26.3484 98.7558 27.3215C97.6052 28.0033 95.9361 28.2235 94.6577 27.5772C93.081 26.7817 93.1094 25.2121 91.7741 22.6126C89.7145 18.5927 87.6335 18.7489 87.2286 16.5827C86.5823 13.1238 90.865 7.19336 96.618 7.19336C102.371 7.19336 106.654 13.1309 106.007 16.5827H106Z" fill="#FFB487"/>
<path d="M100.845 60.0596C102.26 59.6695 102.42 55.779 101.204 51.37C99.988 46.9609 97.8557 43.703 96.4415 44.093C95.0273 44.4831 94.8667 48.3735 96.0828 52.7826C97.2989 57.1916 99.4312 60.4496 100.845 60.0596Z" fill="#8761DE"/>
<path d="M95.9138 52.3787L95.0473 46.4837C94.9479 45.809 94.8485 45.1201 95.0331 44.4595C95.2178 43.799 95.7505 43.1953 96.4252 43.1527C97.455 43.0888 98.0871 44.2252 98.4707 45.1769L100.417 50.0918" stroke="#3E3D4D" stroke-width="1.34226" stroke-miterlimit="10" stroke-linecap="round"/>
<path d="M100.638 50.5178C100.893 49.2607 102.314 48.38 103.55 48.7067C104.785 49.0334 105.581 50.5036 105.183 51.7181" stroke="#3E3D4D" stroke-width="1.34226" stroke-miterlimit="10" stroke-linecap="round"/>
<path d="M104.906 49.2892C106.22 48.9696 107.705 49.4525 108.578 50.4895C109.452 51.5264 109.679 53.0676 109.139 54.3105" stroke="#3E3D4D" stroke-width="1.34226" stroke-miterlimit="10" stroke-linecap="round"/>
<path d="M95.084 26.7179C95.6806 24.5374 95.6238 22.1865 94.9278 20.0416C94.7431 19.4876 94.3809 18.8413 93.7985 18.8626C93.2374 18.8839 92.8965 19.5374 92.9462 20.0984C93.0314 21.1141 94.0684 21.9167 95.0911 21.8385C96.1139 21.7604 96.9732 20.8726 97.1366 19.864C97.1863 19.5373 97.1721 19.1893 97.0088 18.9052C96.8454 18.6211 96.5116 18.4152 96.192 18.472C95.6309 18.5714 95.4605 19.3456 95.6664 19.8783C96.0286 20.8087 97.1579 21.3342 98.1167 21.0715C99.0755 20.8087 99.7716 19.8286 99.7645 18.8342C99.7645 18.4294 99.523 17.9251 99.1253 17.9819C98.7915 18.0246 98.6423 18.4223 98.5713 18.749C98.0741 21.0999 98.0173 23.536 98.4008 25.9082" stroke="#3E3D4D" stroke-width="0.503348" stroke-miterlimit="10" stroke-linecap="round"/>
<path d="M39.3794 84.46C36.8368 81.2639 45.4519 70.1558 58.641 59.6585C60.6794 58.0321 62.7036 56.5264 64.6852 55.1414C69.7066 51.6186 74.4367 48.9055 78.272 47.2933C82.711 45.4183 85.971 44.9921 87.1287 46.441C89.6713 49.6442 81.0561 60.7452 67.867 71.2496C54.685 81.7469 41.9362 87.6632 39.3865 84.4671L39.3794 84.46Z" fill="#8761DE"/>
<path d="M53.8953 92.9358C60.3965 92.6496 65.0132 77.5663 64.2069 59.2462C63.4006 40.9261 57.4767 26.3066 50.9755 26.5928C44.4744 26.8789 39.8577 41.9622 40.664 60.2823C41.4703 78.6024 47.3942 93.2219 53.8953 92.9358Z" fill="#8761DE"/>
<path d="M53.8149 89.7875C58.5843 85.3602 52.3368 70.8761 39.8609 57.4363C27.385 43.9965 13.405 36.6904 8.63563 41.1177C3.8663 45.545 10.1137 60.0291 22.5897 73.4689C35.0656 86.9087 49.0456 94.2148 53.8149 89.7875Z" fill="#8761DE"/>
<path d="M88.1372 73.4587C87.086 82.5284 73.8259 87.77 67.8244 90.1422C50.5301 96.9817 23.3138 97.9264 17.7739 85.7884C12.4116 74.034 27.3266 49.893 47.8738 46.6188C68.1156 43.3943 89.5647 61.0934 88.13 73.4587H88.1372Z" fill="#8761DE"/>
<path d="M52.5697 65.6031C51.2416 67.4568 53.0456 69.7083 55.0698 69.7935C57.2431 69.8787 58.7914 67.613 58.3795 65.596C57.9178 63.3587 55.29 62.5135 53.4007 63.5079C51.3481 64.5874 51.1564 67.3361 52.6763 68.9412C53.6422 69.9568 55.1692 70.241 56.4192 69.623C57.6693 69.0051 58.4505 67.5633 57.6906 66.2707C57.3426 65.6741 56.7317 65.5321 56.0996 65.6244C56.1564 65.6173 56.4476 65.5747 56.2346 65.5818C55.8866 65.596 55.5741 65.6954 55.2615 65.8588C55.2189 65.8801 54.9419 66.0505 55.155 65.9369C55.3965 65.802 54.8922 65.9724 55.2189 65.9227C55.5598 65.873 55.0201 65.9227 55.0343 65.9085C55.0982 65.8303 55.4604 66.0008 55.5243 66.0363C55.29 65.9298 55.5243 66.0221 55.6167 66.1074C55.7161 66.2068 55.7729 66.427 55.6877 66.1926L55.78 66.434C55.7303 66.2565 55.7232 66.2636 55.7516 66.4412C55.7658 66.6045 55.7658 66.6258 55.7587 66.5122C55.7587 66.3986 55.7516 66.4199 55.7374 66.5832C55.709 66.7466 55.709 66.7679 55.7374 66.6542C55.7729 66.5477 55.7587 66.569 55.709 66.711C55.6025 66.8815 55.5314 66.9881 55.3894 67.1301C55.2402 67.2295 55.2402 67.2366 55.3894 67.1372L55.1337 67.2366C55.1337 67.2366 55.3823 67.1727 55.3823 67.1656C55.361 67.2082 54.8922 67.2153 55.2189 67.2153L54.9206 67.1798C55.0911 67.2366 55.084 67.2295 54.9135 67.1656C54.7289 67.0591 54.6294 66.9738 54.4732 66.8318C54.3809 66.6968 54.3595 66.6684 54.4164 66.7608C54.4732 66.8602 54.459 66.8247 54.3809 66.6684C54.3596 66.5761 54.2956 66.157 54.2885 66.2565C54.2885 66.3133 54.2672 66.5051 54.2885 66.5548C54.253 66.4909 54.388 66.0718 54.2885 66.3559C54.3169 66.2636 54.5016 65.9795 54.3524 66.1997C54.2033 66.4199 54.4093 66.1357 54.459 66.0789C54.2814 66.292 54.6436 65.9795 54.7218 65.9369C54.8709 65.8801 54.8993 65.873 54.7928 65.9014C54.6863 65.9298 54.7147 65.9227 54.878 65.8943C54.9703 65.8659 55.0627 65.8659 55.1621 65.8943C55.3184 65.9227 55.3468 65.9227 55.2474 65.8943C55.0201 65.8375 55.6309 66.086 55.3397 65.9156C55.4178 65.9653 55.6309 66.1571 55.4604 65.9724C55.5243 66.0363 55.6877 66.2636 55.5456 66.0576C55.361 65.7877 55.1479 65.5676 54.878 65.39C54.5229 65.1556 55.0201 65.6386 54.7715 65.3119C54.1678 64.5377 53.0385 64.9568 52.5768 65.596L52.5697 65.6031Z" fill="#3E3D4D"/>
<path d="M41.5388 50.9583C42.4053 48.2451 45.5872 47.4568 47.6398 49.4312C48.3785 50.1415 49.5148 49.0193 48.7691 48.302C45.8429 45.4823 41.2335 46.6684 39.9976 50.5321C39.6851 51.5123 41.2263 51.9313 41.5388 50.9583Z" fill="#3E3D4D"/>
<path d="M65.034 46.9026C65.9005 44.1895 69.0823 43.4011 71.1349 45.3756C71.8736 46.0858 73.0099 44.9636 72.2642 44.2463C69.338 41.4267 64.7286 42.6128 63.4928 46.4765C63.1803 47.4566 64.7215 47.8756 65.034 46.9026Z" fill="#3E3D4D"/>
<path d="M67.7958 64.8009C67.5046 65.8378 68.1154 66.9671 69.0174 67.4927C69.8413 67.9756 70.9493 67.9472 71.7377 67.4003C72.526 66.8535 73.151 65.923 73.0658 64.9145C72.9664 63.7284 72.2419 62.7198 71.07 62.3931C70.1112 62.1232 68.9819 62.3647 68.2646 63.0821C67.5473 63.7994 67.2632 64.8719 67.533 65.8804C67.8029 66.889 68.5984 67.6347 69.5714 67.8762C70.8712 68.2029 72.1425 67.4074 72.5615 66.1787C72.7675 65.575 72.5331 64.8506 72.0928 64.4173C71.5956 63.9202 70.9919 63.8491 70.3314 63.9486C70.2604 63.9628 70.1893 63.977 70.1183 63.9983L70.6226 63.9273C70.5516 63.9344 70.4805 63.9415 70.4095 63.9273L70.9351 63.9983C70.793 63.977 70.6439 63.9557 70.5089 63.9059L70.9919 64.1119C70.9493 64.0906 70.9067 64.0693 70.8641 64.0409L71.276 64.3605C71.2192 64.3108 71.1695 64.2682 71.1198 64.2113L71.4394 64.6233C71.3967 64.5594 71.3612 64.5025 71.3257 64.4386L71.5317 64.9287C71.4962 64.8364 71.4678 64.7441 71.4536 64.6517L71.5246 65.1986C71.5246 65.1205 71.5246 65.0565 71.5246 64.9855L71.4536 65.5324C71.4607 65.4827 71.4749 65.4401 71.4891 65.3904L71.2831 65.8804C71.3115 65.8094 71.347 65.7526 71.3896 65.6958L71.07 66.1148C71.0985 66.0793 71.134 66.0438 71.1766 66.0154L70.7575 66.335C70.8215 66.2924 70.8783 66.2568 70.9422 66.2284L70.445 66.4344C70.5161 66.406 70.58 66.3918 70.6581 66.3776L70.1041 66.4486C70.1822 66.4486 70.2462 66.4415 70.3243 66.4486L69.7703 66.3776C69.8413 66.3918 69.9124 66.406 69.9834 66.4273L69.4862 66.2142C69.5572 66.2426 69.6141 66.2782 69.6709 66.3208L69.2518 65.994C69.2873 66.0225 69.3228 66.058 69.3513 66.1006L69.0246 65.6744C69.0246 65.6744 69.0743 65.7455 69.0956 65.7881L68.8825 65.2909C68.9109 65.3548 68.9251 65.4117 68.9393 65.4756L68.8612 64.9216C68.8683 65.0281 68.8683 65.1418 68.8612 65.2483L68.9322 64.6943C68.918 64.7654 68.9038 64.8222 68.8825 64.8861L69.0885 64.396C69.053 64.4812 69.0103 64.5523 68.9535 64.6304L69.2731 64.2184C69.2305 64.2682 69.1879 64.3108 69.1311 64.3534L69.5359 64.0409C69.4791 64.0764 69.4294 64.1048 69.3655 64.1332L69.8413 63.9344C69.7987 63.9486 69.7561 63.9628 69.7135 63.9628L70.2391 63.8918C70.1964 63.8918 70.1538 63.8989 70.1041 63.8918L70.6226 63.9628C70.5587 63.9557 70.5018 63.9415 70.4379 63.9202L70.8996 64.1119C70.8428 64.0835 70.793 64.0551 70.7362 64.0196L71.1198 64.3179C71.07 64.2753 71.0274 64.2327 70.9848 64.1829L71.2831 64.5665C71.1411 64.3747 71.0274 64.1404 70.8428 63.9841C70.3172 63.5651 69.7419 63.3236 69.0601 63.5153C68.4421 63.6858 67.9521 64.1758 67.7816 64.7937L67.7958 64.8009Z" fill="#3E3D4D"/>
<path d="M69.0613 78.7851C68.138 79.8576 66.7886 80.7525 65.1124 80.9513C62.5698 81.2567 60.3751 79.8292 59.3098 78.3306C58.7558 77.5706 58.5001 76.7893 58.6421 76.2141C59.2885 73.5649 69.0613 72.4711 70.2829 74.9214C70.7162 75.7879 70.2332 77.4286 69.0613 78.7851Z" fill="#3E3D4D" stroke="#3E3D4D" stroke-width="1.34226" stroke-miterlimit="10" stroke-linecap="round"/>
<path d="M69.0611 78.7852C68.1378 79.8577 66.7884 80.7526 65.1122 80.9515C62.5695 81.2569 60.3749 79.8293 59.3096 78.3307C60.4744 77.5778 62.7613 77.0878 64.7571 77.2724C66.2983 77.4145 68.1662 78.0182 69.0611 78.7852Z" fill="white"/>
<path d="M99.5726 29.019C100.311 29.85 98.8908 33.5575 96.9163 33.6143C94.9276 33.6711 93.3154 30.0134 94.0114 29.1398C94.2884 28.7918 94.7927 29.0758 96.9163 29.019C98.8624 28.9693 99.2956 28.7065 99.5726 29.019Z" fill="#3E3D4D"/>
<path d="M86.3332 8.06695L83.0732 4.62231" stroke="#3E3D4D" stroke-width="0.503348" stroke-miterlimit="10" stroke-linecap="round"/>
<path d="M97.3926 3.90489V1" stroke="#3E3D4D" stroke-width="0.503348" stroke-miterlimit="10" stroke-linecap="round"/>
<path d="M107.562 9.91348L109.928 8.47168" stroke="#3E3D4D" stroke-width="0.503348" stroke-miterlimit="10" stroke-linecap="round"/>
</svg>
